<svg xmlns="http://www.w3.org/2000/svg" width="2540" height="400" version="1.0" viewBox="0 0 1904.88 300"><defs><clipPath id="a"><path d="M0 .008h1904.762v299.98H0Zm0 0"/></clipPath><clipPath id="b"><path d="M123 275h28v24.988h-28Zm0 0"/></clipPath><clipPath id="c"><path d="M378.406 67h8.903v11h-8.903Zm0 0"/></clipPath><clipPath id="d"><path d="M299 .008h12V11h-12Zm0 0"/></clipPath><clipPath id="e"><path d="M531 275h28v24.988h-28Zm0 0"/></clipPath><clipPath id="f"><path d="M787 67h8.617v11H787Zm0 0"/></clipPath><clipPath id="g"><path d="M707 .008h12V11h-12Zm0 0"/></clipPath><clipPath id="h"><path d="M390 .008h16V1h-16Zm0 0"/></clipPath><clipPath id="i"><path d="M810.02 53H824v11h-13.98Zm0 0"/></clipPath><clipPath id="j"><path d="M1209.086 2.43h8.906V14h-8.906Zm0 0"/></clipPath><clipPath id="k"><path d="M1185.66 242.02h32.332V277h-32.332Zm0 0"/></clipPath><clipPath id="l"><path d="M835 .008h14V13h-14Zm0 0"/></clipPath><clipPath id="m"><path d="M905 .008h16V11h-16Zm0 0"/></clipPath><clipPath id="n"><path d="M1342 275h28v24.988h-28Zm0 0"/></clipPath><clipPath id="o"><path d="M1598 67h8.594v11H1598Zm0 0"/></clipPath><clipPath id="p"><path d="M1518 .008h12V11h-12Zm0 0"/></clipPath><clipPath id="q"><path d="M1201 .008h16V1h-16Zm0 0"/></clipPath></defs><g clip-path="url(#a)"><path fill="#fff" d="M0 .008h1904.879v299.984H0Zm0 0"/><path fill="#f5ebd8" d="M0 .008h1904.879v299.984H0Zm0 0"/></g><g clip-path="url(#b)"><path fill="#ede3d1" fill-rule="evenodd" d="M136.602 302.344c-9.38.258-14.707-6.13-13.075-14.059 1.23-6.008 3.79-10.95 10.489-12.363 4.37-.914 8.09.05 11.015 3.555.215.253.406.543.602.816 3.297 4.516 6.152 9.168 3.437 15.035-2.761 5.953-8.738 5.688-12.468 7.016"/></g><path fill="#ede3d1" fill-rule="evenodd" d="M354.543 203.863c-7.055-.023-10.54-4.718-8.879-11.05 2.164-8.25 10.516-11.004 16.586-5.481 5.14 4.668 3.938 12.406-2.434 15.113-1.859.782-3.93 1.067-5.273 1.418M77.93 165.066c-3.961.118-6.864-2.925-6.79-7.12.055-3.012 2.266-5.325 4.997-5.231 4.3.148 7.39 2.847 7.562 6.605.14 3.114-2.394 5.64-5.77 5.746M177.836 236.45c-3.492.093-6.426-2.302-6.715-6.2-.098-1.258 1.25-3.426 2.379-3.781 1.79-.563 4.035-.27 5.922.25 2.941.832 4.805 3.965 4.148 6.21-.547 1.876-3.105 3.446-5.734 3.52"/><g clip-path="url(#c)"><path fill="#ede3d1" fill-rule="evenodd" d="M387.46 73.629c-.253.613-.46 2.148-1.335 2.973-.824.777-2.488 1.312-3.527 1.023-1.153-.316-2.254-1.535-2.95-2.633-1.41-2.23-.8-5.883 1.09-7.422.45-.37 1.285-.562 1.86-.441 2.695.574 4.687 3.047 4.863 6.5"/></g><path fill="#ede3d1" fill-rule="evenodd" d="M144 113.04c-.11-5.438 2.086-7.517 5.754-7.345 2.031.11 4.168.078 6.062.696 2.54.82 5.16 1.851 7.262 3.421 3.508 2.614 5.024 6.415 4.094 10.813-.711 3.367-5.852 7.168-10.07 7.605-4.075.418-7.727-.988-9.493-4.605-1.898-3.89-2.843-8.246-3.609-10.586M44.805 144.227c-2.657-3.305-5.121-6.383-7.754-9.649-.14-3.828 2.308-6.582 4.566-9.601 4.375-5.813 15.274-4.114 18.242 3.878 1.465 3.965-1.093 9.985-5.406 12.012-3.008 1.403-6.289 2.211-9.648 3.36M227.441 206.727c-1.285-4.942 1.215-8.106 4.88-10.391 3.433-2.145 7.144-1.906 10.663.195 3.387 2.024 6.036 7.801 5.008 11.48-.336 1.22-1.297 2.4-2.277 3.259-1.516 1.343-3.367 2.312-4.934 3.609-2.906 2.426-5.812 3.113-9.386 1.23-3.188-1.68-4.387-4.054-3.965-7.492.078-.668.011-1.36.011-1.89M223.629 110.168c-.14 4.008-4.555 6.762-8.992 5.605-4.938-1.289-8.02-7.28-5.985-12.03.47-1.09 1.676-2.247 2.79-2.61 6.644-2.184 12.425 2.199 12.187 9.035M16.094 272.012c-.969-1.621-1.43-2.14-1.617-2.754-.907-3.004-1.57-5.969 1.875-7.985 3.437-2.015 7.347-1.52 10.125 1.336 3.066 3.157 1.988 7.664-2.25 8.63-2.57.566-5.274.523-8.133.773M307.79 100.922c-3.665-.25-6.372-2.137-8.083-5.242-1.246-2.258-.77-4.586.922-6.559 1.457-1.7 3.254-2.11 5.441-1.437 5.024 1.523 7.383 4.246 7.114 8.43-.188 2.91-2.52 4.991-5.395 4.808M11.734 76.621c-3.41.012-6.68-3.875-6.558-7.785.066-2.2 2.43-4.156 5.015-4.172 3.918-.027 6.844 2.39 7.121 5.875.25 3.113-2.453 6.063-5.578 6.082M167.688 30.8c-1.215 1.505-2.165 3.548-3.735 4.34-1.156.587-3.16-.367-4.73-.828-.57-.167-1.024-.867-1.442-1.398-2.523-3.164-2.726-6.434-.55-8.207 2.496-2.043 6.808-1.176 8.894 1.93.719 1.078.953 2.476 1.563 4.164"/><g clip-path="url(#d)"><path fill="#ede3d1" fill-rule="evenodd" d="M310.55 5.773c-.14 3.415-3.75 5.508-6.554 3.829-2.77-1.676-4.527-4.016-4.933-7.286-.239-1.96 1.609-4.128 3.566-4.156 4.113-.066 8.082 3.754 7.922 7.613"/></g><path fill="#ede3d1" fill-rule="evenodd" d="M234.672 269.246c-2.871.176-4.871-2.258-5.129-6.23-.14-2.215 1.117-3.496 3.687-3.75 4.141-.41 7.122 1.785 6.98 5.148-.1 2.461-2.624 4.66-5.538 4.832M126.965 195.04c-1.5 1.339-2.278 2.507-3.324 2.87-1.63.578-3.766-1.3-3.2-2.812.383-1.028 1.723-2.243 2.73-2.328.97-.086 2.056 1.16 3.794 2.27M63.324 231.945c-3.875-1.222-7.875-2.05-11.488-3.726-4.59-2.149-7.004-6.114-7.7-11.274-1.1-8.172 2.63-14.527 7.5-20.308 1.352-1.606 4.122-2.364 6.38-2.797 8.941-1.707 19.71 4.129 23.894 12.234 3.57 6.918 1.137 19.04-7.601 22.707-3.38 1.418-7.082 2.07-10.985 3.164M236.535 61.152c-5.887.102-11.676-4.89-11.855-10.234-.305-8.797 4.465-15.566 10.984-15.586 7.16-.023 14.527 6.43 14.695 12.875.2 7.598-5.367 12.809-13.824 12.945M89.512 69.14c.093 3.286-3.016 5.997-6.883 5.993-4.078 0-7.434-3.567-7.535-8.02-.078-3.234 2.406-5.785 5.726-5.86 5.121-.12 8.551 2.99 8.692 7.888M259.617 152.77c.621-.899 1.254-2.758 2.531-3.48 3.758-2.11 9.645 1.097 10.25 5.28.551 3.801-2.566 6.688-6.296 5.832-3.766-.859-6.36-3.656-6.485-7.632M296.465 288.395c-.164 2.277-2.395 4.367-4.719 4.41-3.164.062-6.226-3.332-6.039-6.696.125-2.343 2.465-4.55 4.648-4.386 3.59.285 6.344 3.293 6.11 6.672"/><g clip-path="url(#e)"><path fill="#ede3d1" fill-rule="evenodd" d="M544.906 302.344c-9.375.258-14.703-6.13-13.074-14.059 1.23-6.008 3.79-10.95 10.488-12.363 4.375-.914 8.094.05 11.016 3.555.219.253.41.543.605.816 3.293 4.516 6.149 9.168 3.434 15.035-2.762 5.953-8.738 5.688-12.469 7.016"/></g><path fill="#ede3d1" fill-rule="evenodd" d="M762.848 203.863c-7.055-.023-10.54-4.718-8.875-11.05 2.16-8.25 10.515-11.004 16.582-5.481 5.14 4.668 3.941 12.406-2.434 15.113-1.86.782-3.93 1.067-5.273 1.418M486.234 165.066c-3.96.118-6.863-2.925-6.789-7.12.055-3.012 2.266-5.325 4.996-5.231 4.301.148 7.391 2.847 7.563 6.605.14 3.114-2.395 5.64-5.77 5.746M390.645 128.156c-.801-1.117-1.352-1.594-1.536-2.191-1.28-4.266-.664-6.735 1.844-7.75 3.328-1.36 6.79-.434 8.95 2.383 2.437 3.183 1.144 6.804-2.852 7.48-1.934.32-3.973.067-6.406.078M586.145 236.45c-3.497.093-6.43-2.302-6.72-6.2-.097-1.258 1.25-3.426 2.38-3.781 1.789-.563 4.035-.27 5.922.25 2.941.832 4.804 3.965 4.148 6.21-.547 1.876-3.102 3.446-5.73 3.52"/><g clip-path="url(#f)"><path fill="#ede3d1" fill-rule="evenodd" d="M795.766 73.629c-.254.613-.461 2.148-1.336 2.973-.825.777-2.485 1.312-3.528 1.023-1.152-.316-2.254-1.535-2.949-2.633-1.41-2.23-.8-5.883 1.09-7.422.45-.37 1.285-.562 1.86-.441 2.695.574 4.687 3.047 4.863 6.5"/></g><path fill="#ede3d1" fill-rule="evenodd" d="M552.305 113.04c-.11-5.438 2.09-7.517 5.754-7.345 2.03.11 4.168.078 6.062.696 2.54.82 5.16 1.851 7.266 3.421 3.504 2.614 5.02 6.415 4.09 10.813-.711 3.367-5.852 7.168-10.07 7.605-4.075.418-7.727-.988-9.493-4.605-1.898-3.89-2.844-8.246-3.61-10.586M453.11 144.227c-2.657-3.305-5.122-6.383-7.755-9.649-.14-3.828 2.31-6.582 4.567-9.601 4.375-5.813 15.273-4.114 18.246 3.878 1.46 3.965-1.094 9.985-5.41 12.012-3.008 1.403-6.29 2.211-9.649 3.36M635.746 206.727c-1.285-4.942 1.215-8.106 4.879-10.391 3.434-2.145 7.145-1.906 10.664.195 3.387 2.024 6.035 7.801 5.008 11.48-.336 1.22-1.297 2.4-2.274 3.259-1.52 1.343-3.37 2.312-4.937 3.609-2.906 2.426-5.813 3.113-9.387 1.23-3.187-1.68-4.386-4.054-3.96-7.492.073-.668.007-1.36.007-1.89M631.934 110.168c-.141 4.008-4.555 6.762-8.993 5.605-4.937-1.289-8.02-7.28-5.984-12.03.469-1.09 1.676-2.247 2.79-2.61 6.644-2.184 12.425 2.199 12.187 9.035M424.398 272.012c-.968-1.621-1.43-2.14-1.617-2.754-.906-3.004-1.566-5.969 1.875-7.985 3.438-2.015 7.348-1.52 10.125 1.336 3.067 3.157 1.989 7.664-2.25 8.63-2.57.566-5.273.523-8.133.773M716.094 100.922c-3.664-.25-6.371-2.137-8.082-5.242-1.246-2.258-.77-4.586.926-6.559 1.453-1.7 3.25-2.11 5.437-1.437 5.023 1.523 7.387 4.246 7.113 8.43-.187 2.91-2.52 4.991-5.394 4.808M420.04 76.621c-3.411.012-6.68-3.875-6.56-7.785.067-2.2 2.43-4.156 5.016-4.172 3.918-.027 6.844 2.39 7.121 5.875.25 3.113-2.453 6.063-5.578 6.082M575.992 30.8c-1.215 1.505-2.16 3.548-3.734 4.34-1.156.587-3.16-.367-4.73-.828-.567-.167-1.024-.867-1.442-1.398-2.52-3.164-2.727-6.434-.55-8.207 2.495-2.043 6.808-1.176 8.894 1.93.718 1.078.953 2.476 1.562 4.164"/><g clip-path="url(#g)"><path fill="#ede3d1" fill-rule="evenodd" d="M718.855 5.773c-.14 3.415-3.75 5.508-6.554 3.829-2.77-1.676-4.524-4.016-4.934-7.286-.234-1.96 1.61-4.128 3.567-4.156 4.113-.066 8.082 3.754 7.921 7.613"/></g><path fill="#ede3d1" fill-rule="evenodd" d="M642.98 269.246c-2.875.176-4.87-2.258-5.128-6.23-.145-2.215 1.113-3.496 3.683-3.75 4.145-.41 7.121 1.785 6.98 5.148-.1 2.461-2.624 4.66-5.535 4.832M535.273 195.04c-1.503 1.339-2.28 2.507-3.328 2.87-1.629.578-3.765-1.3-3.199-2.812.383-1.028 1.723-2.243 2.73-2.328.973-.086 2.055 1.16 3.797 2.27M471.633 231.945c-3.88-1.222-7.88-2.05-11.492-3.726-4.59-2.149-7.004-6.114-7.7-11.274-1.101-8.172 2.63-14.527 7.5-20.308 1.352-1.606 4.125-2.364 6.38-2.797 8.94-1.707 19.71 4.129 23.894 12.234 3.57 6.918 1.137 19.04-7.602 22.707-3.379 1.418-7.082 2.07-10.98 3.164M644.844 61.152c-5.89.102-11.676-4.89-11.86-10.234-.304-8.797 4.465-15.566 10.985-15.586 7.164-.023 14.527 6.43 14.695 12.875.2 7.598-5.367 12.809-13.82 12.945"/><g clip-path="url(#h)"><path fill="#ede3d1" fill-rule="evenodd" d="M397.637.715c-4.946-.492-7.512-3.29-7.266-7.91.227-4.282 3.192-7.059 7.188-6.754 5.18.414 8.421 4.527 7.757 9.851-.414 3.282-3.511 5.23-7.68 4.813"/></g><path fill="#ede3d1" fill-rule="evenodd" d="M497.816 69.14c.094 3.286-3.015 5.997-6.882 5.993-4.079 0-7.43-3.567-7.536-8.02-.078-3.234 2.41-5.785 5.727-5.86 5.121-.12 8.555 2.99 8.691 7.888M667.922 152.77c.621-.899 1.254-2.758 2.531-3.48 3.758-2.11 9.645 1.097 10.254 5.28.547 3.801-2.566 6.688-6.3 5.832-3.766-.859-6.36-3.656-6.485-7.632M704.77 288.395c-.165 2.277-2.395 4.367-4.72 4.41-3.163.062-6.226-3.332-6.038-6.696.125-2.343 2.465-4.55 4.652-4.386 3.586.285 6.34 3.293 6.106 6.672M967.281 237.773c-9.375.258-14.703-6.128-13.074-14.062 1.234-6.004 3.79-10.945 10.492-12.36 4.371-.917 8.09.051 11.016 3.555.215.254.406.543.601.817 3.293 4.515 6.153 9.168 3.438 15.035-2.762 5.953-8.742 5.687-12.473 7.015M1185.223 139.29c-7.055-.02-10.54-4.716-8.875-11.048 2.164-8.25 10.515-11.004 16.586-5.48 5.14 4.668 3.937 12.406-2.434 15.11-1.86.784-3.934 1.07-5.277 1.417M819.664 283.316c-1.91-.753-3.527-1.218-5-1.98-3.348-1.73-3.223-5.168-2.988-8.047.207-2.605 2.734-3.73 5.297-3.953 1.683-.145 3.437-.371 5.066-.059 3.496.653 5.45 5.34 3.336 8.051-1.64 2.113-3.691 3.899-5.71 5.988M908.613 100.496c-3.96.117-6.863-2.926-6.789-7.121.055-3.012 2.262-5.324 4.996-5.23 4.301.144 7.39 2.847 7.563 6.605.14 3.113-2.399 5.64-5.77 5.746"/><g clip-path="url(#i)"><path fill="#ede3d1" fill-rule="evenodd" d="M813.023 63.582c-.804-1.113-1.351-1.59-1.535-2.187-1.281-4.266-.668-6.735 1.84-7.754 3.328-1.356 6.79-.43 8.953 2.386 2.438 3.184 1.145 6.805-2.855 7.48-1.934.321-3.969.067-6.403.075"/></g><path fill="#ede3d1" fill-rule="evenodd" d="M1008.52 171.875c-3.493.098-6.426-2.297-6.72-6.195-.093-1.258 1.255-3.43 2.38-3.782 1.789-.562 4.035-.27 5.925.25 2.942.832 4.805 3.965 4.145 6.211-.543 1.875-3.102 3.446-5.73 3.516"/><g clip-path="url(#j)"><path fill="#ede3d1" fill-rule="evenodd" d="M1218.145 9.055c-.254.617-.465 2.152-1.336 2.976-.825.778-2.489 1.313-3.528 1.024-1.152-.317-2.254-1.535-2.949-2.633-1.41-2.23-.805-5.883 1.09-7.422.45-.371 1.285-.563 1.86-.441 2.695.574 4.687 3.046 4.863 6.496"/></g><g clip-path="url(#k)"><path fill="#ede3d1" fill-rule="evenodd" d="M1202.406 276.727c-6.71-.118-11.527-3.711-15.37-8.743-1.766-2.32-1.755-5.234-.411-7.773 2.215-4.188 4.523-8.36 7.191-12.262 4.524-6.629 13.34-6.64 17.922.086 2.27 3.32 3.828 7.16 5.492 10.871.532 1.164.575 2.664.465 3.973-.644 7.258-7.957 13.824-15.289 13.848"/></g><path fill="#ede3d1" fill-rule="evenodd" d="M974.684 48.469c-.11-5.438 2.086-7.516 5.75-7.344 2.035.11 4.168.074 6.066.695 2.535.82 5.156 1.852 7.262 3.418 3.508 2.617 5.02 6.414 4.093 10.817-.71 3.363-5.851 7.168-10.07 7.605-4.078.418-7.73-.988-9.492-4.605-1.902-3.89-2.848-8.246-3.61-10.586M875.484 79.656a4373.583 4373.583 0 0 0-7.754-9.652c-.14-3.824 2.31-6.578 4.57-9.598 4.376-5.812 15.274-4.113 18.243 3.88 1.465 3.964-1.094 9.984-5.406 12.01-3.008 1.4-6.29 2.212-9.653 3.36M1058.121 142.156c-1.285-4.941 1.215-8.105 4.879-10.39 3.438-2.145 7.148-1.91 10.664.195 3.387 2.023 6.04 7.8 5.012 11.48-.34 1.22-1.301 2.399-2.278 3.258-1.52 1.344-3.367 2.313-4.937 3.61-2.902 2.425-5.809 3.113-9.383 1.226-3.191-1.676-4.39-4.05-3.965-7.488.074-.668.008-1.363.008-1.89M1066.719 270.477c.105-3.235 2.945-6.434 6.289-7.079 3.668-.71 7.648 1.036 9.59 4.29 1.125 1.89 1.336 3.91-.11 5.68a32.03 32.03 0 0 1-4.258 4.35c-1.726 1.466-3.78 1.442-5.714.387-3.059-1.652-5.887-3.55-5.797-7.628M1054.313 45.598c-.141 4.004-4.555 6.757-8.993 5.601-4.937-1.285-8.02-7.277-5.988-12.027.473-1.09 1.676-2.246 2.793-2.61 6.64-2.183 12.422 2.196 12.188 9.036M846.777 207.441c-.968-1.62-1.433-2.144-1.617-2.754-.91-3.003-1.57-5.968 1.875-7.988 3.434-2.012 7.344-1.515 10.125 1.34 3.063 3.152 1.988 7.664-2.25 8.629-2.574.566-5.277.523-8.133.773M1138.473 36.352c-3.664-.25-6.375-2.137-8.082-5.243-1.25-2.257-.77-4.586.921-6.558 1.458-1.703 3.254-2.11 5.442-1.442 5.02 1.528 7.383 4.25 7.113 8.434-.187 2.91-2.523 4.992-5.394 4.809"/><g clip-path="url(#l)"><path fill="#ede3d1" fill-rule="evenodd" d="M842.418 12.05c-3.41.012-6.68-3.874-6.559-7.784.067-2.204 2.426-4.157 5.016-4.172 3.918-.028 6.84 2.39 7.121 5.875.25 3.113-2.453 6.062-5.578 6.082"/></g><path fill="#ede3d1" fill-rule="evenodd" d="M1065.355 204.676c-2.875.172-4.87-2.262-5.128-6.23-.141-2.216 1.113-3.497 3.683-3.75 4.145-.41 7.121 1.784 6.98 5.144-.097 2.465-2.624 4.664-5.535 4.836M957.648 130.469c-1.5 1.34-2.28 2.508-3.328 2.87-1.625.579-3.765-1.304-3.199-2.812.383-1.027 1.723-2.242 2.734-2.328.97-.086 2.055 1.16 3.793 2.27M894.008 167.375c-3.875-1.223-7.88-2.05-11.488-3.727-4.594-2.148-7.004-6.113-7.7-11.277-1.101-8.168 2.63-14.523 7.5-20.305 1.352-1.605 4.121-2.363 6.375-2.796 8.946-1.708 19.711 4.128 23.899 12.234 3.566 6.918 1.133 19.039-7.606 22.707-3.375 1.418-7.078 2.07-10.98 3.164"/><g clip-path="url(#m)"><path fill="#ede3d1" fill-rule="evenodd" d="M920.191 4.566c.098 3.29-3.015 6-6.879 5.997-4.082 0-7.433-3.567-7.539-8.02-.078-3.238 2.41-5.785 5.73-5.86 5.122-.12 8.552 2.989 8.688 7.883"/></g><path fill="#ede3d1" fill-rule="evenodd" d="M1090.3 88.2c.618-.9 1.25-2.759 2.528-3.481 3.762-2.11 9.649 1.097 10.254 5.281.55 3.797-2.566 6.684-6.297 5.832-3.77-.86-6.36-3.656-6.484-7.633M1127.145 223.824c-.16 2.278-2.391 4.367-4.715 4.41-3.168.063-6.227-3.332-6.043-6.695.125-2.344 2.468-4.55 4.652-4.387 3.59.286 6.344 3.29 6.106 6.672"/><g clip-path="url(#n)"><path fill="#ede3d1" fill-rule="evenodd" d="M1355.883 302.344c-9.375.258-14.703-6.13-13.074-14.059 1.23-6.008 3.789-10.95 10.488-12.363 4.375-.914 8.094.05 11.015 3.555.22.253.41.543.606.816 3.293 4.516 6.148 9.168 3.434 15.035-2.762 5.953-8.739 5.688-12.47 7.016"/></g><path fill="#ede3d1" fill-rule="evenodd" d="M1573.824 203.863c-7.054-.023-10.539-4.718-8.875-11.05 2.16-8.25 10.516-11.004 16.582-5.481 5.14 4.668 3.942 12.406-2.433 15.113-1.86.782-3.93 1.067-5.274 1.418M1297.21 165.066c-3.96.118-6.862-2.925-6.788-7.12.055-3.012 2.265-5.325 4.996-5.231 4.3.148 7.39 2.847 7.562 6.605.141 3.114-2.394 5.64-5.77 5.746M1201.621 128.156c-.8-1.117-1.351-1.594-1.535-2.191-1.281-4.266-.664-6.735 1.844-7.75 3.328-1.36 6.789-.434 8.949 2.383 2.437 3.183 1.144 6.804-2.852 7.48-1.933.32-3.972.067-6.406.078M1397.121 236.45c-3.496.093-6.43-2.302-6.719-6.2-.097-1.258 1.25-3.426 2.38-3.781 1.788-.563 4.034-.27 5.921.25 2.942.832 4.805 3.965 4.149 6.21-.547 1.876-3.102 3.446-5.73 3.52"/><g clip-path="url(#o)"><path fill="#ede3d1" fill-rule="evenodd" d="M1606.742 73.629c-.254.613-.46 2.148-1.336 2.973-.824.777-2.484 1.312-3.527 1.023-1.152-.316-2.254-1.535-2.95-2.633-1.41-2.23-.8-5.883 1.09-7.422.45-.37 1.286-.562 1.86-.441 2.695.574 4.687 3.047 4.863 6.5"/></g><path fill="#ede3d1" fill-rule="evenodd" d="M1363.281 113.04c-.11-5.438 2.09-7.517 5.754-7.345 2.031.11 4.168.078 6.063.696 2.539.82 5.16 1.851 7.265 3.421 3.504 2.614 5.02 6.415 4.09 10.813-.71 3.367-5.851 7.168-10.07 7.605-4.074.418-7.727-.988-9.492-4.605-1.899-3.89-2.844-8.246-3.61-10.586M1264.086 144.227c-2.656-3.305-5.121-6.383-7.754-9.649-.14-3.828 2.309-6.582 4.566-9.601 4.375-5.813 15.274-4.114 18.247 3.878 1.46 3.965-1.098 9.985-5.41 12.012-3.008 1.403-6.29 2.211-9.65 3.36M1446.723 206.727c-1.285-4.942 1.215-8.106 4.879-10.391 3.433-2.145 7.144-1.906 10.664.195 3.386 2.024 6.035 7.801 5.007 11.48-.335 1.22-1.296 2.4-2.273 3.259-1.52 1.343-3.371 2.312-4.938 3.609-2.906 2.426-5.812 3.113-9.386 1.23-3.188-1.68-4.387-4.054-3.961-7.492.074-.668.008-1.36.008-1.89M1442.91 110.168c-.14 4.008-4.555 6.762-8.992 5.605-4.938-1.289-8.02-7.28-5.984-12.03.468-1.09 1.675-2.247 2.789-2.61 6.644-2.184 12.425 2.199 12.187 9.035M1235.375 272.012c-.969-1.621-1.43-2.14-1.617-2.754-.906-3.004-1.567-5.969 1.875-7.985 3.437-2.015 7.347-1.52 10.125 1.336 3.066 3.157 1.988 7.664-2.25 8.63-2.57.566-5.274.523-8.133.773M1527.07 100.922c-3.664-.25-6.37-2.137-8.082-5.242-1.246-2.258-.77-4.586.926-6.559 1.453-1.7 3.25-2.11 5.438-1.437 5.023 1.523 7.386 4.246 7.113 8.43-.188 2.91-2.52 4.991-5.395 4.808M1231.016 76.621c-3.41.012-6.68-3.875-6.559-7.785.066-2.2 2.43-4.156 5.016-4.172 3.918-.027 6.843 2.39 7.12 5.875.25 3.113-2.452 6.063-5.577 6.082M1386.969 30.8c-1.215 1.505-2.16 3.548-3.735 4.34-1.156.587-3.16-.367-4.73-.828-.566-.167-1.024-.867-1.441-1.398-2.52-3.164-2.727-6.434-.551-8.207 2.496-2.043 6.808-1.176 8.894 1.93.719 1.078.953 2.476 1.563 4.164"/><g clip-path="url(#p)"><path fill="#ede3d1" fill-rule="evenodd" d="M1529.832 5.773c-.14 3.415-3.75 5.508-6.555 3.829-2.77-1.676-4.523-4.016-4.933-7.286-.239-1.96 1.61-4.128 3.566-4.156 4.113-.066 8.082 3.754 7.922 7.613"/></g><path fill="#ede3d1" fill-rule="evenodd" d="M1453.953 269.246c-2.871.176-4.867-2.258-5.125-6.23-.144-2.215 1.113-3.496 3.684-3.75 4.144-.41 7.12 1.785 6.98 5.148-.101 2.461-2.625 4.66-5.539 4.832M1346.25 195.04c-1.504 1.339-2.281 2.507-3.328 2.87-1.629.578-3.766-1.3-3.2-2.812.383-1.028 1.723-2.243 2.731-2.328.973-.086 2.055 1.16 3.797 2.27M1282.61 231.945c-3.88-1.222-7.88-2.05-11.493-3.726-4.59-2.149-7.004-6.114-7.699-11.274-1.102-8.172 2.629-14.527 7.5-20.308 1.352-1.606 4.125-2.364 6.379-2.797 8.941-1.707 19.71 4.129 23.894 12.234 3.57 6.918 1.137 19.04-7.601 22.707-3.38 1.418-7.082 2.07-10.98 3.164M1455.82 61.152c-5.89.102-11.675-4.89-11.86-10.234-.304-8.797 4.466-15.566 10.985-15.586 7.164-.023 14.528 6.43 14.696 12.875.199 7.598-5.368 12.809-13.82 12.945"/><g clip-path="url(#q)"><path fill="#ede3d1" fill-rule="evenodd" d="M1208.613.715c-4.945-.492-7.511-3.29-7.265-7.91.226-4.282 3.191-7.059 7.187-6.754 5.18.414 8.422 4.527 7.758 9.851-.414 3.282-3.512 5.23-7.68 4.813"/></g><path fill="#ede3d1" fill-rule="evenodd" d="M1308.793 69.14c.094 3.286-3.016 5.997-6.883 5.993-4.078 0-7.43-3.567-7.535-8.02-.078-3.234 2.41-5.785 5.727-5.86 5.12-.12 8.554 2.99 8.691 7.888M1478.898 152.77c.622-.899 1.254-2.758 2.532-3.48 3.757-2.11 9.644 1.097 10.254 5.28.546 3.801-2.567 6.688-6.301 5.832-3.766-.859-6.36-3.656-6.485-7.632M1515.746 288.395c-.164 2.277-2.394 4.367-4.719 4.41-3.164.062-6.226-3.332-6.039-6.696.125-2.343 2.465-4.55 4.649-4.386 3.59.285 6.343 3.293 6.11 6.672M1698.066 290.902c-9.375.258-14.703-6.129-13.074-14.058 1.235-6.008 3.79-10.95 10.492-12.364 4.371-.914 8.09.051 11.016 3.56.215.253.406.538.602.812 3.293 4.52 6.152 9.168 3.437 15.039-2.766 5.949-8.742 5.683-12.473 7.011M1639.398 153.625c-3.96.117-6.863-2.922-6.789-7.121.055-3.012 2.262-5.324 4.996-5.227 4.301.145 7.391 2.844 7.563 6.606.14 3.11-2.398 5.637-5.77 5.742M1543.809 116.715c-.805-1.117-1.356-1.594-1.536-2.188-1.28-4.27-.668-6.734 1.84-7.754 3.328-1.355 6.79-.433 8.953 2.383 2.438 3.188 1.145 6.805-2.855 7.485-1.934.32-3.973.066-6.402.074M1739.305 225.008c-3.496.094-6.426-2.301-6.72-6.2-.093-1.253 1.255-3.425 2.38-3.78 1.789-.563 4.035-.27 5.926.25 2.937.831 4.804 3.964 4.144 6.21-.543 1.875-3.101 3.45-5.73 3.52M1705.465 101.598c-.106-5.438 2.09-7.516 5.754-7.34 2.035.105 4.168.074 6.066.695 2.535.817 5.156 1.848 7.262 3.418 3.508 2.617 5.02 6.414 4.094 10.813-.711 3.367-5.856 7.168-10.07 7.605-4.079.418-7.731-.984-9.493-4.605-1.902-3.887-2.848-8.243-3.613-10.586M1606.27 132.785c-2.653-3.305-5.122-6.383-7.754-9.648-.141-3.828 2.308-6.582 4.57-9.602 4.375-5.808 15.273-4.113 18.242 3.883 1.465 3.96-1.094 9.98-5.406 12.008-3.008 1.402-6.29 2.21-9.652 3.36M1788.906 195.29c-1.285-4.942 1.215-8.11 4.88-10.392 3.437-2.148 7.148-1.91 10.663.196 3.387 2.02 6.04 7.797 5.012 11.48-.34 1.219-1.3 2.395-2.277 3.254-1.52 1.344-3.368 2.313-4.938 3.613-2.902 2.422-5.809 3.11-9.383 1.227-3.191-1.676-4.39-4.05-3.965-7.492.075-.664.008-1.36.008-1.887M1785.098 98.727c-.141 4.007-4.555 6.761-8.993 5.605-4.937-1.285-8.02-7.281-5.988-12.031.473-1.09 1.676-2.246 2.793-2.606 6.64-2.183 12.422 2.196 12.188 9.032M1577.563 260.57c-.97-1.62-1.434-2.14-1.622-2.754-.906-3.003-1.566-5.968 1.88-7.984 3.433-2.016 7.343-1.52 10.124 1.34 3.063 3.152 1.989 7.66-2.254 8.625-2.57.566-5.273.523-8.129.773M1869.258 89.48c-3.664-.25-6.375-2.136-8.082-5.238-1.25-2.262-.77-4.59.922-6.562 1.457-1.7 3.254-2.11 5.441-1.438 5.02 1.528 7.383 4.246 7.113 8.43-.187 2.914-2.523 4.992-5.394 4.808M1573.203 65.18c-3.41.015-6.68-3.875-6.558-7.785.066-2.2 2.425-4.157 5.015-4.172 3.918-.024 6.84 2.39 7.121 5.879.25 3.109-2.457 6.058-5.578 6.078M1729.156 19.36c-1.215 1.507-2.164 3.55-3.734 4.34-1.16.585-3.164-.368-4.73-.829-.57-.168-1.024-.867-1.446-1.398-2.52-3.164-2.723-6.434-.547-8.207 2.496-2.043 6.809-1.176 8.89 1.93.724 1.077.954 2.476 1.567 4.163M1796.14 257.805c-2.874.175-4.87-2.258-5.128-6.23-.14-2.216 1.113-3.497 3.683-3.747 4.145-.414 7.121 1.781 6.98 5.145-.097 2.46-2.624 4.66-5.534 4.832M1688.434 183.598c-1.5 1.34-2.282 2.507-3.329 2.87-1.625.579-3.765-1.3-3.199-2.812.383-1.027 1.723-2.242 2.735-2.328.968-.082 2.054 1.16 3.793 2.27M1624.793 220.508c-3.875-1.223-7.879-2.051-11.488-3.727-4.594-2.152-7.004-6.117-7.7-11.277-1.101-8.172 2.63-14.527 7.5-20.309 1.352-1.605 4.122-2.363 6.375-2.793 8.946-1.71 19.711 4.125 23.899 12.23 3.566 6.919 1.133 19.04-7.606 22.708-3.378 1.418-7.078 2.074-10.98 3.168M1798.004 49.71c-5.89.102-11.676-4.89-11.86-10.233-.304-8.793 4.47-15.567 10.985-15.586 7.164-.024 14.531 6.43 14.695 12.879.203 7.593-5.363 12.804-13.82 12.94M1650.977 57.7c.097 3.284-3.016 5.995-6.88 5.991-4.081 0-7.433-3.562-7.538-8.02-.079-3.233 2.41-5.784 5.73-5.858 5.117-.122 8.55 2.988 8.688 7.886M1821.086 141.328c.617-.898 1.25-2.758 2.527-3.48 3.762-2.11 9.649 1.097 10.254 5.285.551 3.797-2.566 6.683-6.297 5.828-3.77-.86-6.36-3.656-6.484-7.633M1857.93 276.957c-.16 2.273-2.39 4.367-4.715 4.406-3.168.063-6.23-3.332-6.043-6.695.125-2.344 2.469-4.55 4.652-4.383 3.59.281 6.344 3.29 6.106 6.672"/></svg>