<svg xmlns="http://www.w3.org/2000/svg" xmlns:xlink="http://www.w3.org/1999/xlink" width="10" zoomAndPan="magnify" viewBox="0 0 375 374.999991" height="10" preserveAspectRatio="xMidYMid meet" version="1.0"><defs><clipPath id="8947ebbc9f"><path d="M 187.5 0 C 83.945312 0 0 83.945312 0 187.5 C 0 291.054688 83.945312 375 187.5 375 C 291.054688 375 375 291.054688 375 187.5 C 375 83.945312 291.054688 0 187.5 0 Z M 187.5 0 " clip-rule="nonzero"/></clipPath><clipPath id="4003bc6dc0"><path d="M 39.953125 39.953125 L 335.046875 39.953125 L 335.046875 335.046875 L 39.953125 335.046875 Z M 39.953125 39.953125 " clip-rule="nonzero"/></clipPath><clipPath id="a5e4098b48"><path d="M 187.5 39.953125 C 106.011719 39.953125 39.953125 106.011719 39.953125 187.5 C 39.953125 268.988281 106.011719 335.046875 187.5 335.046875 C 268.988281 335.046875 335.046875 268.988281 335.046875 187.5 C 335.046875 106.011719 268.988281 39.953125 187.5 39.953125 Z M 187.5 39.953125 " clip-rule="nonzero"/></clipPath></defs><g clip-path="url(#8947ebbc9f)"><rect x="-37.5" width="450" fill="#ffffff" y="-37.499999" height="449.999989" fill-opacity="1"/></g><g clip-path="url(#4003bc6dc0)"><g clip-path="url(#a5e4098b48)"><path fill="#0077b6" d="M 39.953125 39.953125 L 335.046875 39.953125 L 335.046875 335.046875 L 39.953125 335.046875 Z M 39.953125 39.953125 " fill-opacity="1" fill-rule="nonzero"/></g></g></svg>